<svg width="136" height="180" viewBox="0 0 136 180" fill="none" xmlns="http://www.w3.org/2000/svg">
<path d="M0 8.42105C0 3.77023 3.77023 0 8.42105 0H127.579C132.23 0 136 3.77023 136 8.42105V171.579C136 176.23 132.23 180 127.579 180H8.42105C3.77023 180 0 176.23 0 171.579V8.42105ZM116.521 27.8732C116.521 23.2224 112.751 19.4522 108.1 19.4522H27.8997C23.2489 19.4522 19.4786 23.2224 19.4786 27.8733V149.626C19.4786 154.277 23.2488 158.047 27.8997 158.047H108.1C112.751 158.047 116.521 154.277 116.521 149.626V27.8732Z" fill="#FFBBA6"/>
<g opacity="0.2">
<path d="M101.077 180H64.9344L58.4919 158.047H102.746V19.4522H37.8123L32.1034 0H43.7563L101.077 180Z" fill="white"/>
</g>
<path opacity="0.7" d="M127.842 8.33673V9.79608L126.262 10.9077L126.262 161.103L9.74114 167.745V169.441H8.0708V8.33673H127.842Z" fill="#F78E6E"/>
<path opacity="0.7" d="M127.931 9.72656V169.437H9.73962V9.72656L126.356 10.8381L127.931 9.72656Z" fill="#F78E6E"/>
<path d="M126.261 11.7701H9.73962V167.773H126.261V11.7701Z" fill="#FFA98F"/>
<path d="M126.261 9.72656H9.73962V144.377H126.261V9.72656Z" fill="#7F6C5D"/>
<path d="M9.73962 37.0122H126.264L126.261 9.72656H9.73962V37.0122Z" fill="#705D57"/>
<path opacity="0.4" d="M115.688 19.4557L121.059 21.5735L126.26 23.6239V156.454L118.749 162.289H15.5121V144.117H18.2996L115.688 19.4557Z" fill="#705D57"/>
<path d="M17.8165 138.333L117.944 137.859L116.111 120.714H19.0924L17.8165 138.333Z" fill="#A59FA2"/>
<path d="M50.3035 134.48C50.2893 134.997 50.6961 135.421 51.2064 135.421L83.7469 135.422C84.2574 135.422 84.6613 134.998 84.6442 134.48L84.1442 123.375C84.1143 122.858 83.6336 122.434 83.0766 122.434H51.8013C51.2438 122.434 50.7659 122.858 50.7394 123.375L50.3035 134.48Z" fill="#777174"/>
<path d="M116.111 80.3264H19.0917V120.715H116.111V80.3264Z" fill="#777174"/>
<path opacity="0.4" d="M19.0917 104.374C19.0917 104.374 49.6551 107.543 69.5699 107.543C89.4854 107.543 116.111 104.373 116.111 104.373V26.325L19.0917 26.3255V104.374Z" fill="#423F41"/>
<path d="M60.0814 99.6628H19.0908V120.715H60.0814V99.6628Z" fill="#D2D7DB"/>
<path opacity="0.4" d="M60.0813 103.01V112.25H19.0907V103.01" fill="white"/>
<path opacity="0.1" d="M60.0813 115.307H19.0907V120.714H60.0813V115.307Z" fill="url(#paint0_linear_376_31072)"/>
<path opacity="0.8" d="M108.642 111.5H83.0731V114.658H108.642V111.5Z" fill="#2C2F3E"/>
<path d="M83.8225 112.248H107.893V113.91H83.8225V112.248ZM82.324 110.752V112.248V113.91V115.406H83.8225H107.893H109.391V113.91V112.248V110.752H107.893H83.8225H82.324Z" fill="#BCBCBC"/>
<g opacity="0.6">
<path d="M109.391 115.406H82.324V116.641H109.391V115.406Z" fill="#423F41"/>
</g>
<g opacity="0.7">
<path d="M79.1213 112.675L79.104 114.416" stroke="white" stroke-width="0.797915" stroke-miterlimit="10"/>
<path d="M78.0902 113.44L79.116 113.017L80.1332 113.46L79.1359 111.032L78.0902 113.44Z" fill="white"/>
</g>
<path d="M117.944 142.84H17.8446V160.208H117.944V142.84Z" fill="#D2D7DB"/>
<path d="M51.5338 134.571C51.5206 135.038 51.8984 135.421 52.3723 135.421H82.5885C83.0624 135.421 83.4373 135.039 83.4213 134.572L82.9568 124.539C82.9293 124.071 82.483 123.688 81.9657 123.688H52.9245C52.4074 123.688 51.9634 124.071 51.9385 124.539L51.5338 134.571Z" fill="#D2D7DB"/>
<g opacity="0.5">
<path d="M74.9017 124.649H77.8133L77.8821 126.142H74.9311L74.9017 124.649Z" fill="#3B3E4D" stroke="#3B3E4D" stroke-width="0.609752" stroke-miterlimit="10" stroke-linejoin="round"/>
<path d="M66.2635 124.649H69.1819L69.2031 126.142H66.246L66.2635 124.649Z" fill="#3B3E4D" stroke="#3B3E4D" stroke-width="0.609752" stroke-miterlimit="10" stroke-linejoin="round"/>
<path d="M70.5802 124.649H73.497L73.5414 126.142L70.5859 126.142L70.5802 124.649Z" fill="#3B3E4D" stroke="#3B3E4D" stroke-width="0.609752" stroke-miterlimit="10" stroke-linejoin="round"/>
</g>
<g opacity="0.5">
<path d="M74.9492 127.24H77.9268L77.9966 128.926H74.9777L74.9492 127.24Z" fill="#3B3E4D" stroke="#3B3E4D" stroke-width="0.609752" stroke-miterlimit="10" stroke-linejoin="round"/>
<path d="M70.5912 127.241L73.5747 127.24L73.6201 128.926H70.5962L70.5912 127.241Z" fill="#3B3E4D" stroke="#3B3E4D" stroke-width="0.609752" stroke-miterlimit="10" stroke-linejoin="round"/>
<path d="M66.2334 127.242H69.2183L69.2407 128.928H66.2147L66.2334 127.242Z" fill="#3B3E4D" stroke="#3B3E4D" stroke-width="0.609752" stroke-miterlimit="10" stroke-linejoin="round"/>
</g>
<g opacity="0.5">
<path d="M66.2041 130.02H69.2554L69.2759 131.707H66.1873L66.2041 130.02Z" fill="#3B3E4D" stroke="#3B3E4D" stroke-width="0.609752" stroke-miterlimit="10" stroke-linejoin="round"/>
<path d="M74.9969 130.021H78.0413L78.1033 131.707H75.0211L74.9969 130.021Z" fill="#3B3E4D" stroke="#3B3E4D" stroke-width="0.609752" stroke-miterlimit="10" stroke-linejoin="round"/>
<path d="M70.6002 130.021L73.6494 130.021L73.6907 131.707H70.6036L70.6002 130.021Z" fill="#3B3E4D" stroke="#3B3E4D" stroke-width="0.609752" stroke-miterlimit="10" stroke-linejoin="round"/>
</g>
<g opacity="0.5">
<path d="M70.6041 132.8L73.7142 132.8L73.7499 134.458H70.6057L70.6041 132.8Z" fill="#3B3E4D" stroke="#3B3E4D" stroke-width="0.609752" stroke-miterlimit="10" stroke-linejoin="round"/>
<path d="M75.0334 132.8H78.1389L78.1918 134.458H75.0524L75.0334 132.8Z" fill="#3B3E4D" stroke="#3B3E4D" stroke-width="0.609752" stroke-miterlimit="10" stroke-linejoin="round"/>
<path d="M66.1749 132.8H69.287L69.3057 134.457H66.1597L66.1749 132.8Z" fill="#3B3E4D" stroke="#3B3E4D" stroke-width="0.609752" stroke-miterlimit="10" stroke-linejoin="round"/>
</g>
<path d="M74.9251 124.192C74.923 124.098 75.0055 124.02 75.109 124.02H77.6538C77.7568 124.02 77.8444 124.097 77.8491 124.191L77.902 125.342C77.9063 125.436 77.8266 125.513 77.7247 125.513H75.1368C75.0349 125.513 74.9497 125.436 74.9481 125.341L74.9251 124.192Z" fill="#BEBABF"/>
<path d="M66.2581 124.192C66.2592 124.098 66.3447 124.02 66.4475 124.02H68.9991C69.1024 124.02 69.1876 124.098 69.189 124.192L69.2049 125.341C69.206 125.436 69.124 125.513 69.0221 125.513H66.4272C66.3251 125.513 66.2428 125.436 66.2442 125.341L66.2581 124.192Z" fill="#BEBABF"/>
<path d="M70.5887 124.192C70.5887 124.098 70.6728 124.02 70.7759 124.02H73.3255C73.4289 124.02 73.5155 124.098 73.5185 124.192L73.5529 125.341C73.5554 125.436 73.4747 125.513 73.3726 125.513H70.7797C70.6779 125.513 70.5944 125.436 70.5942 125.341L70.5887 124.192Z" fill="#BEBABF"/>
<path d="M74.9754 126.783C74.9733 126.689 75.0547 126.611 75.1557 126.611H77.7741C77.8746 126.611 77.961 126.689 77.9651 126.782L78.0214 128.127C78.025 128.221 77.9462 128.297 77.8466 128.297H75.1823C75.0823 128.297 74.9998 128.221 74.9979 128.126L74.9754 126.783Z" fill="#BEBABF"/>
<path d="M70.5997 126.784C70.5995 126.689 70.6818 126.611 70.7827 126.611H73.4064C73.5076 126.611 73.5922 126.689 73.5951 126.783L73.6318 128.126C73.6346 128.221 73.5543 128.297 73.4547 128.297L70.7857 128.298C70.6857 128.298 70.6038 128.221 70.6038 128.125L70.5997 126.784Z" fill="#BEBABF"/>
<path d="M66.2283 126.784C66.2292 126.689 66.3129 126.611 66.4136 126.611H69.0393C69.1405 126.611 69.2242 126.689 69.2253 126.784L69.2429 128.125C69.2444 128.221 69.1633 128.298 69.0642 128.298H66.3926C66.293 128.298 66.2119 128.221 66.2133 128.125L66.2283 126.784Z" fill="#BEBABF"/>
<path d="M66.1956 129.568C66.1967 129.473 66.2786 129.395 66.3775 129.395H69.077C69.1762 129.395 69.258 129.473 69.2591 129.568L69.2756 130.91C69.2769 131.005 69.1976 131.082 69.0996 131.082H66.3581C66.2606 131.082 66.1812 131.005 66.1824 130.91L66.1956 129.568Z" fill="#BEBABF"/>
<path d="M75.0186 129.567C75.0174 129.472 75.0972 129.395 75.1963 129.395H77.8888C77.988 129.395 78.0716 129.472 78.0757 129.566L78.1252 130.91C78.1288 131.004 78.0518 131.081 77.9538 131.081H75.2189C75.1207 131.081 75.0398 131.004 75.0389 130.909L75.0186 129.567Z" fill="#BEBABF"/>
<path d="M70.6067 129.567C70.6062 129.472 70.6874 129.395 70.7863 129.395H73.4838C73.5829 129.395 73.6659 129.472 73.668 129.567L73.7012 130.909C73.7037 131.004 73.6256 131.081 73.5278 131.081H70.7874C70.6896 131.081 70.6097 131.004 70.6097 130.909L70.6067 129.567Z" fill="#BEBABF"/>
<path d="M70.6132 132.348C70.6132 132.253 70.6927 132.176 70.7896 132.176H73.5557C73.6532 132.176 73.7337 132.253 73.736 132.347L73.7644 133.661C73.7667 133.756 73.6899 133.832 73.5944 133.832H70.7891C70.6932 133.832 70.6152 133.756 70.6152 133.661L70.6132 132.348Z" fill="#BEBABF"/>
<path d="M75.0564 132.347C75.0553 132.253 75.1337 132.176 75.2303 132.176H77.9921C78.0892 132.176 78.171 132.253 78.1742 132.347L78.2166 133.661C78.2198 133.756 78.1437 133.832 78.0479 133.832H75.2476C75.1519 133.832 75.0728 133.756 75.0719 133.661L75.0564 132.347Z" fill="#B9C91F"/>
<path d="M66.1666 132.348C66.1678 132.253 66.2473 132.176 66.3446 132.176H69.1128C69.2099 132.176 69.2899 132.253 69.291 132.348L69.3056 133.661C69.3065 133.756 69.229 133.833 69.1335 133.833H66.3268C66.2309 133.833 66.1534 133.756 66.1546 133.661L66.1666 132.348Z" fill="#BEBABF"/>
<path opacity="0.5" d="M63.1209 126.327L57.127 126.326L57.1846 124.833L63.1754 124.833L63.1209 126.327Z" fill="#3B3E4D" stroke="#3B3E4D" stroke-width="0.609752" stroke-miterlimit="10" stroke-linejoin="round"/>
<path opacity="0.5" d="M63.023 129.109H57.0281L57.0853 127.423H63.0802L63.023 129.109Z" fill="#3B3E4D" stroke="#3B3E4D" stroke-width="0.609752" stroke-miterlimit="10" stroke-linejoin="round"/>
<path opacity="0.5" d="M62.9351 131.889H56.9436L56.9935 130.203H62.9879L62.9351 131.889Z" fill="#3B3E4D" stroke="#3B3E4D" stroke-width="0.609752" stroke-miterlimit="10" stroke-linejoin="round"/>
<path opacity="0.5" d="M62.8572 134.641H56.8741L56.9152 132.985H62.9037L62.8572 134.641Z" fill="#3B3E4D" stroke="#3B3E4D" stroke-width="0.609752" stroke-miterlimit="10" stroke-linejoin="round"/>
<path d="M63.1084 125.342C63.1054 125.436 63.0188 125.514 62.9172 125.514H57.2694C57.1675 125.514 57.0873 125.437 57.0909 125.343L57.1358 124.192C57.1397 124.098 57.227 124.02 57.33 124.02H62.9703C63.0733 124.02 63.1544 124.098 63.1508 124.192L63.1084 125.342Z" fill="#BEBABF"/>
<path d="M63.0089 128.127C63.0054 128.221 62.9213 128.298 62.8215 128.298H57.1648C57.0648 128.298 56.9857 128.221 56.9891 128.127L57.0356 126.783C57.039 126.689 57.1245 126.612 57.2255 126.612H62.8769C62.9781 126.612 63.0579 126.689 63.0549 126.784L63.0089 128.127Z" fill="#BEBABF"/>
<path d="M62.9198 130.906C62.917 131 62.835 131.078 62.7368 131.078H57.0758C56.9778 131.078 56.9 131.001 56.9028 130.907L56.9436 129.563C56.9468 129.468 57.0293 129.391 57.1286 129.391H62.7878C62.8872 129.391 62.9651 129.468 62.9624 129.563L62.9198 130.906Z" fill="#BEBABF"/>
<path d="M62.8417 133.661C62.8389 133.755 62.7585 133.832 62.6628 133.832L57.0024 133.832C56.9065 133.832 56.8301 133.755 56.8322 133.661L56.8657 132.346C56.8684 132.252 56.9496 132.176 57.0467 132.176H62.7081C62.805 132.176 62.882 132.252 62.8788 132.347L62.8417 133.661Z" fill="#FF6A5F"/>
<path d="M117.944 137.6H17.8165V142.84H117.944V137.6Z" fill="#777174"/>
<path opacity="0.4" d="M60.0814 107.24C41.2145 106.555 19.0908 104.261 19.0908 104.261V98.9941H60.0814V107.24Z" fill="#423F41"/>
<path d="M19.0917 103.036C19.0917 103.036 49.6551 106.206 69.5699 106.206C89.4854 106.206 116.111 103.036 116.111 103.036V19.3544L19.0917 19.3551V103.036Z" fill="#CEC9CF"/>
<path opacity="0.5" d="M104.143 91.0417C104.858 91.0417 105.444 88.8821 105.444 89.5967V91.4967C105.444 92.2114 104.858 92.7956 104.143 92.7956L31.3473 92.7958C30.6317 92.7958 30.0464 92.2114 30.0464 91.4969V89.5965C30.0464 88.8821 30.6317 91.0417 31.3473 91.0417H104.143Z" fill="white"/>
<path d="M103.835 39.6397C104.568 39.6397 105.168 40.2387 105.168 40.9709V90.1968C105.168 90.929 104.568 91.528 103.835 91.528L31.6604 91.5283C30.9272 91.5283 30.3274 90.9292 30.3274 90.197V40.9709C30.3274 40.2387 30.9272 39.6397 31.6604 39.6397H103.835Z" fill="#777174"/>
<path d="M31.3618 86.8472C31.3618 87.7412 32.0941 88.4725 32.9893 88.4725H102.501C103.396 88.4725 104.128 87.7412 104.128 86.8472V38.6362C104.128 37.7422 103.396 37.0107 102.501 37.0107L32.9893 37.0109C32.0941 37.0109 31.3618 37.7422 31.3618 38.6362V86.8472Z" fill="url(#paint1_linear_376_31072)"/>
<path d="M31.3618 86.8472C31.3618 87.7412 32.0941 88.4725 32.9893 88.4725H102.501C103.396 88.4725 104.128 87.7412 104.128 86.8472V38.6362C104.128 37.7422 103.396 37.0107 102.501 37.0107L32.9893 37.0109C32.0941 37.0109 31.3618 37.7422 31.3618 38.6362V86.8472Z" fill="url(#paint2_linear_376_31072)" stroke="#2F2F33" stroke-width="1.89873" stroke-miterlimit="10"/>
<path d="M52.0685 99.5187C52.0685 100.006 52.4678 100.405 52.956 100.405H81.1871C81.6753 100.405 82.0746 100.006 82.0746 99.5187V98.5981C82.0746 98.1105 81.6753 97.7118 81.1871 97.7118H52.956C52.4678 97.7118 52.0685 98.1105 52.0685 98.5981V99.5187Z" fill="white"/>
<g opacity="0.2">
<path d="M73.7831 87.2533H52.1791L40.9272 48.9124L42.3631 38.2823H59.1152L73.7831 87.2533Z" fill="white"/>
</g>
<g opacity="0.2">
<path d="M90.9891 87.2533H83.9082L69.241 38.2823H76.3212L90.9891 87.2533Z" fill="white"/>
</g>
<path d="M47.4794 111.326H26.2064V114.155H47.4794V111.326Z" fill="#A59FA2"/>
<path d="M46.8093 112.648H26.8767V113.629H46.8093V112.648Z" fill="#4A4D59"/>
<path opacity="0.8" d="M26.8767 113.611L26.2067 114.531H47.4796L46.8093 113.611H26.8767Z" fill="white"/>
<path opacity="0.4" d="M52.441 112.678C52.441 111.637 51.5966 110.794 50.5548 110.794C49.5135 110.794 48.6685 111.637 48.6685 112.678C48.6685 113.718 49.5135 114.562 50.5548 114.562C51.5966 114.562 52.441 113.718 52.441 112.678Z" fill="#705D57"/>
<path d="M51.709 112.679C51.709 112.042 51.1919 111.526 50.5542 111.526C49.9168 111.526 49.3994 112.042 49.3994 112.679C49.3994 113.316 49.917 113.832 50.5542 113.832C51.1921 113.832 51.709 113.315 51.709 112.679Z" fill="#DCE523"/>
<path d="M51.0899 112.384C51.0899 112.196 50.9364 112.043 50.7487 112.043C50.5596 112.043 50.4067 112.196 50.4067 112.384C50.4067 112.573 50.5596 112.726 50.7487 112.726C50.9366 112.726 51.0899 112.573 51.0899 112.384Z" fill="white"/>
<path opacity="0.4" d="M9.73962 167.773L26.4982 160.39V142.885H25.7483V137.652L30.4651 120.793C30.4651 120.793 30.0649 116.81 30.6249 112.642C31.1846 108.474 32.8007 104.586 32.8007 104.586L43.3433 31.4238H116.285V9.8704L9.73962 9.72656V167.773Z" fill="#705D57"/>
<g opacity="0.4">
<path d="M118.017 142.775H17.8289V144.009H118.017V142.775Z" fill="#705D57"/>
</g>
<rect width="16.2988" height="15.4839" transform="translate(60.9884 144.194)" fill="white"/>
<path fill-rule="evenodd" clip-rule="evenodd" d="M65.1729 149.668C65.1636 149.688 65.1853 149.625 65.1916 149.603L65.216 149.518C65.47 148.647 65.7231 147.776 65.9763 146.904L74.1319 146.92L65.1188 153.867L69.2376 149.164L66.144 149.172C66.0864 149.172 66.0296 149.171 65.9719 149.176C65.6054 149.205 65.2872 149.416 65.1729 149.668Z" fill="#636463"/>
<path d="M65.1729 149.668C65.1636 149.688 65.1853 149.625 65.1916 149.603L65.216 149.518C65.47 148.647 65.7231 147.776 65.9763 146.904L74.1319 146.92L65.1188 153.867L69.2376 149.164L66.144 149.172C66.0864 149.172 66.0296 149.171 65.9719 149.176C65.6054 149.205 65.2872 149.416 65.1729 149.668Z" stroke="#FFFCFC" stroke-width="0.395675" stroke-miterlimit="22.926"/>
<path fill-rule="evenodd" clip-rule="evenodd" d="M73.6879 151.667C73.6971 151.647 73.4416 153.148 72.9904 154.7L64.4789 154.745L73.6715 147.689L69.5516 152.437L72.6458 152.428C72.703 152.428 72.7601 152.43 72.8175 152.425C73.1842 152.395 73.5738 151.919 73.6879 151.667Z" fill="#D22F14"/>
<path d="M73.6879 151.667C73.6971 151.647 73.4416 153.148 72.9904 154.7L64.4789 154.745L73.6715 147.689L69.5516 152.437L72.6458 152.428C72.703 152.428 72.7601 152.43 72.8175 152.425C73.1842 152.395 73.5738 151.919 73.6879 151.667Z" stroke="#FFFCFC" stroke-width="0.395675" stroke-miterlimit="22.926"/>
<path fill-rule="evenodd" clip-rule="evenodd" d="M65.6131 156.909H64.1649L65.1659 155.62H64.5018L64.5503 155.264H65.9297L64.9308 156.55H65.6614L65.6131 156.909ZM65.8866 156.909H66.8905L66.94 156.54H66.3716L66.4092 156.263H66.9454L66.993 155.91H66.457L66.4954 155.625H67.0638L67.1125 155.264H66.1086L65.8866 156.909ZM67.1858 156.909L67.408 155.264H67.839L68.3436 156.11C68.3534 156.127 68.3678 156.162 68.3886 156.214C68.4088 156.266 68.43 156.328 68.4532 156.4C68.4533 156.332 68.4551 156.271 68.4581 156.218C68.4611 156.165 68.4655 156.117 68.4714 156.076L68.581 155.264H69.0098L68.7876 156.909H68.3586L67.8547 156.059C67.8442 156.042 67.8289 156.008 67.8087 155.956C67.7887 155.903 67.7673 155.842 67.7449 155.772C67.7441 155.841 67.7423 155.902 67.7398 155.955C67.7366 156.008 67.732 156.055 67.7261 156.097L67.6168 156.909L67.1858 156.909ZM69.1501 156.909L69.3721 155.264H69.8235L69.6014 156.909H69.1501ZM70.1978 156.909L70.3673 155.653H69.9997L70.0526 155.264H71.2336L71.1809 155.653H70.8139L70.644 156.909H70.1978ZM71.2296 156.909H71.6762L71.7665 156.239H72.3618L72.2715 156.909H72.7193L72.9413 155.264H72.4935L72.4072 155.903H71.8121L71.8982 155.264H71.4514L71.2296 156.909Z" fill="#B2B3B2"/>
<defs>
<linearGradient id="paint0_linear_376_31072" x1="39.5862" y1="105.351" x2="39.5862" y2="132.141" gradientUnits="userSpaceOnUse">
<stop stop-color="#C9C9C9"/>
<stop offset="0.0252" stop-color="#C1C1C1"/>
<stop offset="0.2008" stop-color="#929091"/>
<stop offset="0.375" stop-color="#6A6868"/>
<stop offset="0.5446" stop-color="#4B4849"/>
<stop offset="0.708" stop-color="#353132"/>
<stop offset="0.8629" stop-color="#282425"/>
<stop offset="1" stop-color="#231F20"/>
</linearGradient>
<linearGradient id="paint1_linear_376_31072" x1="83.5453" y1="108.089" x2="48.2915" y2="6.63104" gradientUnits="userSpaceOnUse">
<stop stop-color="#C4551D"/>
<stop offset="1" stop-color="#C4543D"/>
</linearGradient>
<linearGradient id="paint2_linear_376_31072" x1="83.5453" y1="108.089" x2="48.2915" y2="6.63104" gradientUnits="userSpaceOnUse">
<stop stop-color="#F39D72"/>
<stop offset="1" stop-color="#F55C3D"/>
</linearGradient>
</defs>
</svg>
