<svg width="136" height="180" viewBox="0 0 136 180" fill="none" xmlns="http://www.w3.org/2000/svg">
<path d="M0 8.42105C0 3.77023 3.77023 0 8.42105 0H127.579C132.23 0 136 3.77023 136 8.42105V171.579C136 176.23 132.23 180 127.579 180H8.42105C3.77023 180 0 176.23 0 171.579V8.42105ZM116.521 27.8732C116.521 23.2224 112.751 19.4522 108.1 19.4522H27.8997C23.2489 19.4522 19.4786 23.2224 19.4786 27.8733V149.626C19.4786 154.277 23.2488 158.047 27.8997 158.047H108.1C112.751 158.047 116.521 154.277 116.521 149.626V27.8732Z" fill="#FFBBA6"/>
<g opacity="0.2">
<path d="M101.077 180H64.9346L58.4921 158.047H102.746V19.4522H37.8124L32.1035 0H43.7565L101.077 180Z" fill="white"/>
</g>
<path opacity="0.7" d="M127.842 8.33676V9.79611L126.262 10.9077L126.262 161.104L9.74114 167.745V169.441H8.0708V8.33676H127.842Z" fill="#F78E6E"/>
<path opacity="0.7" d="M127.931 9.72656V169.437H9.73975V9.72656L126.357 10.8381L127.931 9.72656Z" fill="#F78E6E"/>
<path d="M126.261 11.7701H9.73975V167.773H126.261V11.7701Z" fill="#FFA98F"/>
<path d="M126.261 9.72656H9.73975V144.377H126.261V9.72656Z" fill="#7F6C5D"/>
<path d="M9.73975 37.0122H126.264L126.261 9.72656H9.73975V37.0122Z" fill="#705D57"/>
<path opacity="0.4" d="M115.688 19.4557L121.059 21.5735L126.26 23.6239V156.454L118.749 162.289H15.5122V144.117H18.2998L115.688 19.4557Z" fill="#705D57"/>
<path d="M17.8169 138.333L117.944 137.859L116.112 120.714H19.0927L17.8169 138.333Z" fill="#A59FA2"/>
<path d="M50.3036 134.48C50.2894 134.997 50.6963 135.421 51.2065 135.421L83.747 135.422C84.2575 135.422 84.6614 134.998 84.6443 134.48L84.1443 123.375C84.1144 122.858 83.6338 122.434 83.0768 122.434H51.8014C51.2439 122.434 50.766 122.858 50.7396 123.375L50.3036 134.48Z" fill="#777174"/>
<path d="M116.111 80.3264H19.0918V120.715H116.111V80.3264Z" fill="#777174"/>
<path opacity="0.4" d="M19.0918 104.374C19.0918 104.374 49.6552 107.543 69.57 107.543C89.4855 107.543 116.111 104.373 116.111 104.373V26.325L19.0918 26.3255V104.374Z" fill="#423F41"/>
<path d="M60.0814 99.6628H19.0908V120.715H60.0814V99.6628Z" fill="#D2D7DB"/>
<path opacity="0.4" d="M60.0814 103.01V112.25H19.0908V103.01" fill="white"/>
<path opacity="0.1" d="M60.0814 115.307H19.0908V120.714H60.0814V115.307Z" fill="url(#paint0_linear_522_29368)"/>
<path opacity="0.8" d="M108.642 111.5H83.0732V114.658H108.642V111.5Z" fill="#2C2F3E"/>
<path d="M83.8227 112.248H107.893V113.91H83.8227V112.248ZM82.3242 110.752V112.248V113.91V115.406H83.8227H107.893H109.391V113.91V112.248V110.752H107.893H83.8227H82.3242Z" fill="#BCBCBC"/>
<g opacity="0.6">
<path d="M109.391 115.406H82.3242V116.641H109.391V115.406Z" fill="#423F41"/>
</g>
<g opacity="0.7">
<path d="M79.1213 112.675L79.104 114.416" stroke="white" stroke-width="0.797915" stroke-miterlimit="10"/>
<path d="M78.0903 113.44L79.1161 113.017L80.1333 113.46L79.136 111.032L78.0903 113.44Z" fill="white"/>
</g>
<path d="M117.944 142.84H17.8447V160.208H117.944V142.84Z" fill="#D2D7DB"/>
<path d="M51.534 134.571C51.5208 135.038 51.8987 135.421 52.3725 135.421H82.5888C83.0626 135.421 83.4375 135.039 83.4215 134.572L82.9571 124.539C82.9295 124.071 82.4833 123.688 81.9659 123.688H52.9247C52.4076 123.688 51.9636 124.071 51.9388 124.539L51.534 134.571Z" fill="#D2D7DB"/>
<g opacity="0.5">
<path d="M74.9019 124.649H77.8134L77.8822 126.142H74.9313L74.9019 124.649Z" fill="#3B3E4D" stroke="#3B3E4D" stroke-width="0.609752" stroke-miterlimit="10" stroke-linejoin="round"/>
<path d="M66.2636 124.649H69.182L69.2032 126.142H66.2461L66.2636 124.649Z" fill="#3B3E4D" stroke="#3B3E4D" stroke-width="0.609752" stroke-miterlimit="10" stroke-linejoin="round"/>
<path d="M70.5801 124.649H73.4968L73.5413 126.142L70.5858 126.142L70.5801 124.649Z" fill="#3B3E4D" stroke="#3B3E4D" stroke-width="0.609752" stroke-miterlimit="10" stroke-linejoin="round"/>
</g>
<g opacity="0.5">
<path d="M74.9492 127.24H77.9268L77.9966 128.926H74.9777L74.9492 127.24Z" fill="#3B3E4D" stroke="#3B3E4D" stroke-width="0.609752" stroke-miterlimit="10" stroke-linejoin="round"/>
<path d="M70.5913 127.241L73.5749 127.24L73.6202 128.926H70.5963L70.5913 127.241Z" fill="#3B3E4D" stroke="#3B3E4D" stroke-width="0.609752" stroke-miterlimit="10" stroke-linejoin="round"/>
<path d="M66.2335 127.242H69.2184L69.2408 128.928H66.2148L66.2335 127.242Z" fill="#3B3E4D" stroke="#3B3E4D" stroke-width="0.609752" stroke-miterlimit="10" stroke-linejoin="round"/>
</g>
<g opacity="0.5">
<path d="M66.2044 130.02H69.2556L69.2761 131.707H66.1875L66.2044 130.02Z" fill="#3B3E4D" stroke="#3B3E4D" stroke-width="0.609752" stroke-miterlimit="10" stroke-linejoin="round"/>
<path d="M74.9971 130.02H78.0415L78.1035 131.707H75.0212L74.9971 130.02Z" fill="#3B3E4D" stroke="#3B3E4D" stroke-width="0.609752" stroke-miterlimit="10" stroke-linejoin="round"/>
<path d="M70.6006 130.021L73.6498 130.02L73.691 131.707H70.604L70.6006 130.021Z" fill="#3B3E4D" stroke="#3B3E4D" stroke-width="0.609752" stroke-miterlimit="10" stroke-linejoin="round"/>
</g>
<g opacity="0.5">
<path d="M70.6045 132.8L73.7145 132.8L73.7503 134.457H70.6061L70.6045 132.8Z" fill="#3B3E4D" stroke="#3B3E4D" stroke-width="0.609752" stroke-miterlimit="10" stroke-linejoin="round"/>
<path d="M75.0342 132.8H78.1397L78.1925 134.457H75.0531L75.0342 132.8Z" fill="#3B3E4D" stroke="#3B3E4D" stroke-width="0.609752" stroke-miterlimit="10" stroke-linejoin="round"/>
<path d="M66.1754 132.8H69.2875L69.3062 134.457H66.1602L66.1754 132.8Z" fill="#3B3E4D" stroke="#3B3E4D" stroke-width="0.609752" stroke-miterlimit="10" stroke-linejoin="round"/>
</g>
<path d="M74.9248 124.192C74.9228 124.098 75.0053 124.019 75.1088 124.019H77.6536C77.7566 124.019 77.8441 124.097 77.8489 124.191L77.9018 125.342C77.9061 125.436 77.8263 125.513 77.7245 125.513H75.1366C75.0347 125.513 74.9495 125.436 74.9479 125.341L74.9248 124.192Z" fill="#BEBABF"/>
<path d="M66.2581 124.192C66.2592 124.098 66.3447 124.02 66.4475 124.02H68.9991C69.1024 124.02 69.1876 124.098 69.189 124.192L69.2049 125.341C69.206 125.436 69.124 125.513 69.0221 125.513H66.4272C66.3251 125.513 66.2428 125.436 66.2442 125.341L66.2581 124.192Z" fill="#BEBABF"/>
<path d="M70.5889 124.192C70.5889 124.098 70.673 124.019 70.776 124.019H73.3256C73.4291 124.019 73.5157 124.098 73.5186 124.192L73.553 125.341C73.5555 125.436 73.4749 125.513 73.3728 125.513H70.7799C70.678 125.513 70.5946 125.436 70.5943 125.341L70.5889 124.192Z" fill="#BEBABF"/>
<path d="M74.9756 126.783C74.9736 126.689 75.0549 126.611 75.1559 126.611H77.7743C77.8748 126.611 77.9612 126.689 77.9653 126.782L78.0216 128.126C78.0253 128.221 77.9464 128.297 77.8468 128.297H75.1826C75.0825 128.297 75 128.221 74.9982 128.126L74.9756 126.783Z" fill="#BEBABF"/>
<path d="M70.6001 126.783C70.5999 126.689 70.6821 126.611 70.7831 126.611H73.4068C73.508 126.611 73.5925 126.689 73.5955 126.783L73.6322 128.126C73.6349 128.221 73.5547 128.297 73.4551 128.297L70.7861 128.298C70.686 128.298 70.6042 128.22 70.6042 128.125L70.6001 126.783Z" fill="#BEBABF"/>
<path d="M66.2284 126.783C66.2294 126.689 66.313 126.611 66.4137 126.611H69.0395C69.1407 126.611 69.2243 126.689 69.2254 126.783L69.243 128.125C69.2446 128.22 69.1634 128.298 69.0643 128.298H66.3928C66.2932 128.298 66.212 128.22 66.2134 128.125L66.2284 126.783Z" fill="#BEBABF"/>
<path d="M66.1958 129.568C66.197 129.473 66.2788 129.395 66.3777 129.395H69.0773C69.1764 129.395 69.2582 129.473 69.2594 129.568L69.2758 130.91C69.2772 131.005 69.1978 131.082 69.0998 131.082H66.3583C66.2608 131.082 66.1815 131.005 66.1826 130.91L66.1958 129.568Z" fill="#BEBABF"/>
<path d="M75.0186 129.567C75.0174 129.472 75.0972 129.395 75.1963 129.395H77.8888C77.988 129.395 78.0716 129.472 78.0757 129.566L78.1252 130.91C78.1288 131.004 78.0518 131.081 77.9538 131.081H75.2189C75.1207 131.081 75.0398 131.004 75.0389 130.909L75.0186 129.567Z" fill="#BEBABF"/>
<path d="M70.6069 129.567C70.6065 129.472 70.6876 129.395 70.7865 129.395H73.484C73.5832 129.395 73.6661 129.472 73.6682 129.567L73.7015 130.909C73.704 131.004 73.6258 131.081 73.528 131.081H70.7877C70.6899 131.081 70.6099 131.004 70.6099 130.909L70.6069 129.567Z" fill="#BEBABF"/>
<path d="M70.6133 132.348C70.6133 132.253 70.6928 132.176 70.7897 132.176H73.5558C73.6533 132.176 73.7338 132.253 73.7361 132.347L73.7646 133.661C73.7668 133.755 73.69 133.832 73.5945 133.832H70.7892C70.6933 133.832 70.6153 133.755 70.6153 133.661L70.6133 132.348Z" fill="#BEBABF"/>
<path d="M75.0567 132.347C75.0555 132.253 75.1339 132.176 75.2305 132.176H77.9923C78.0894 132.176 78.1712 132.252 78.1744 132.346L78.2168 133.661C78.22 133.755 78.1439 133.832 78.0482 133.832H75.2479C75.1521 133.832 75.0731 133.755 75.0721 133.661L75.0567 132.347Z" fill="#B9C91F"/>
<path d="M66.1669 132.348C66.168 132.253 66.2476 132.176 66.3449 132.176H69.113C69.2101 132.176 69.2901 132.253 69.2913 132.348L69.3059 133.661C69.3068 133.756 69.2293 133.832 69.1338 133.832H66.3271C66.2311 133.832 66.1537 133.756 66.1548 133.661L66.1669 132.348Z" fill="#BEBABF"/>
<path opacity="0.5" d="M63.1209 126.326L57.127 126.326L57.1846 124.833L63.1754 124.833L63.1209 126.326Z" fill="#3B3E4D" stroke="#3B3E4D" stroke-width="0.609752" stroke-miterlimit="10" stroke-linejoin="round"/>
<path opacity="0.5" d="M63.0232 129.109H57.0283L57.0855 127.423H63.0804L63.0232 129.109Z" fill="#3B3E4D" stroke="#3B3E4D" stroke-width="0.609752" stroke-miterlimit="10" stroke-linejoin="round"/>
<path opacity="0.5" d="M62.9353 131.889H56.9438L56.9938 130.203H62.9882L62.9353 131.889Z" fill="#3B3E4D" stroke="#3B3E4D" stroke-width="0.609752" stroke-miterlimit="10" stroke-linejoin="round"/>
<path opacity="0.5" d="M62.8576 134.641H56.8745L56.9155 132.985H62.9041L62.8576 134.641Z" fill="#3B3E4D" stroke="#3B3E4D" stroke-width="0.609752" stroke-miterlimit="10" stroke-linejoin="round"/>
<path d="M63.1089 125.342C63.1059 125.436 63.0193 125.514 62.9177 125.514H57.2699C57.168 125.514 57.0878 125.437 57.0914 125.343L57.1363 124.192C57.1402 124.098 57.2275 124.02 57.3305 124.02H62.9708C63.0738 124.02 63.1549 124.098 63.1513 124.192L63.1089 125.342Z" fill="#BEBABF"/>
<path d="M63.0091 128.127C63.0057 128.221 62.9216 128.298 62.8218 128.298H57.1651C57.065 128.298 56.9859 128.221 56.9894 128.127L57.0359 126.783C57.0393 126.689 57.1247 126.612 57.2257 126.612H62.8771C62.9783 126.612 63.0581 126.689 63.0551 126.784L63.0091 128.127Z" fill="#BEBABF"/>
<path d="M62.9199 130.906C62.9172 131 62.8351 131.078 62.7369 131.078H57.0759C56.9779 131.078 56.9002 131.001 56.9029 130.907L56.9437 129.563C56.9469 129.468 57.0294 129.391 57.1288 129.391H62.7879C62.8873 129.391 62.9653 129.468 62.9625 129.563L62.9199 130.906Z" fill="#BEBABF"/>
<path d="M62.842 133.661C62.8393 133.755 62.7589 133.832 62.6631 133.832L57.0028 133.832C56.9069 133.832 56.8305 133.755 56.8326 133.661L56.8661 132.346C56.8688 132.252 56.9499 132.176 57.047 132.176H62.7085C62.8053 132.176 62.8824 132.252 62.8792 132.347L62.842 133.661Z" fill="#FF6A5F"/>
<path d="M117.944 137.6H17.8169V142.84H117.944V137.6Z" fill="#777174"/>
<path opacity="0.4" d="M60.0814 107.24C41.2145 106.555 19.0908 104.261 19.0908 104.261V98.9942H60.0814V107.24Z" fill="#423F41"/>
<path d="M19.0918 104.036C19.0918 104.036 49.6552 107.206 69.57 107.206C89.4855 107.206 116.111 104.036 116.111 104.036V20.3545L19.0918 20.3552V104.036Z" fill="#CEC9CF"/>
<path opacity="0.5" d="M104.143 91.0417C104.858 91.0417 105.444 88.8821 105.444 89.5967V91.4967C105.444 92.2113 104.858 92.7956 104.143 92.7956L31.3473 92.7958C30.6317 92.7958 30.0464 92.2113 30.0464 91.4969V89.5965C30.0464 88.8821 30.6317 91.0417 31.3473 91.0417H104.143Z" fill="white"/>
<path d="M103.835 39.6397C104.568 39.6397 105.168 40.2387 105.168 40.9709V90.1968C105.168 90.929 104.568 91.528 103.835 91.528L31.6607 91.5282C30.9275 91.5282 30.3276 90.9292 30.3276 90.197V40.9709C30.3276 40.2387 30.9275 39.6397 31.6607 39.6397H103.835Z" fill="#777174"/>
<path d="M31.3618 86.8472C31.3618 87.7412 32.0941 88.4725 32.9893 88.4725H102.501C103.396 88.4725 104.128 87.7412 104.128 86.8472V38.6362C104.128 37.7422 103.396 37.0107 102.501 37.0107L32.9893 37.0109C32.0941 37.0109 31.3618 37.7422 31.3618 38.6362V86.8472Z" fill="url(#paint1_linear_522_29368)"/>
<path d="M31.3618 86.8472C31.3618 87.7412 32.0941 88.4725 32.9893 88.4725H102.501C103.396 88.4725 104.128 87.7412 104.128 86.8472V38.6362C104.128 37.7422 103.396 37.0107 102.501 37.0107L32.9893 37.0109C32.0941 37.0109 31.3618 37.7422 31.3618 38.6362V86.8472Z" fill="url(#paint2_linear_522_29368)" stroke="#2F2F33" stroke-width="1.89873" stroke-miterlimit="10"/>
<path d="M52.0688 99.5186C52.0688 100.006 52.4681 100.405 52.9563 100.405H81.1875C81.6757 100.405 82.075 100.006 82.075 99.5186V98.598C82.075 98.1105 81.6757 97.7117 81.1875 97.7117H52.9563C52.4681 97.7117 52.0688 98.1105 52.0688 98.598V99.5186Z" fill="white"/>
<g opacity="0.2">
<path d="M73.7831 87.2533H52.1791L40.9272 48.9124L42.3631 38.2823H59.1152L73.7831 87.2533Z" fill="white"/>
</g>
<g opacity="0.2">
<path d="M90.9893 87.2533H83.9085L69.2412 38.2823H76.3214L90.9893 87.2533Z" fill="white"/>
</g>
<path d="M47.4795 111.326H26.2065V114.155H47.4795V111.326Z" fill="#A59FA2"/>
<path d="M46.8091 112.648H26.8765V113.629H46.8091V112.648Z" fill="#4A4D59"/>
<path opacity="0.8" d="M26.8766 113.611L26.2065 114.53H47.4795L46.8092 113.611H26.8766Z" fill="white"/>
<path opacity="0.4" d="M52.441 112.678C52.441 111.637 51.5966 110.794 50.5548 110.794C49.5135 110.794 48.6685 111.637 48.6685 112.678C48.6685 113.718 49.5135 114.562 50.5548 114.562C51.5966 114.562 52.441 113.718 52.441 112.678Z" fill="#705D57"/>
<path d="M51.709 112.679C51.709 112.042 51.1919 111.526 50.5542 111.526C49.9168 111.526 49.3994 112.042 49.3994 112.679C49.3994 113.316 49.917 113.832 50.5542 113.832C51.1921 113.832 51.709 113.315 51.709 112.679Z" fill="#DCE523"/>
<path d="M51.0899 112.384C51.0899 112.196 50.9364 112.043 50.7487 112.043C50.5596 112.043 50.4067 112.196 50.4067 112.384C50.4067 112.573 50.5596 112.726 50.7487 112.726C50.9366 112.726 51.0899 112.573 51.0899 112.384Z" fill="white"/>
<path opacity="0.4" d="M9.73975 167.773L26.4983 160.39V142.885H25.7485V137.652L30.4652 120.793C30.4652 120.793 30.065 116.81 30.625 112.642C31.1847 108.474 32.8008 104.586 32.8008 104.586L43.3434 31.4238H116.286V9.8704L9.73975 9.72656V167.773Z" fill="#705D57"/>
<g opacity="0.4">
<path d="M118.017 142.775H17.8291V144.009H118.017V142.775Z" fill="#705D57"/>
</g>
<path d="M69.4451 48L85.3218 75.5C85.4681 75.7534 85.5451 76.0408 85.5451 76.3333C85.5451 76.6259 85.4681 76.9133 85.3218 77.1667C85.1755 77.42 84.9651 77.6304 84.7118 77.7767C84.4584 77.923 84.171 78 83.8785 78H52.1251C51.8326 78 51.5452 77.923 51.2918 77.7767C51.0384 77.6304 50.8281 77.42 50.6818 77.1667C50.5355 76.9133 50.4585 76.6259 50.4585 76.3333C50.4585 76.0408 50.5355 75.7534 50.6818 75.5L66.5585 48C66.7047 47.7467 66.9151 47.5363 67.1685 47.39C67.4218 47.2438 67.7092 47.1668 68.0018 47.1668C68.2943 47.1668 68.5817 47.2438 68.8351 47.39C69.0884 47.5363 69.2988 47.7467 69.4451 48ZM66.3351 69.6667V73H69.6685V69.6667H66.3351ZM66.3351 58V66.3334H69.6685V58H66.3351Z" fill="#800000"/>
<rect width="16.2988" height="15.4839" transform="translate(60.9883 144.194)" fill="white"/>
<path fill-rule="evenodd" clip-rule="evenodd" d="M65.1727 149.668C65.1634 149.688 65.1852 149.625 65.1915 149.603L65.2159 149.518C65.4698 148.647 65.7229 147.776 65.9762 146.904L74.1318 146.92L65.1187 153.867L69.2375 149.164L66.1439 149.172C66.0862 149.172 66.0294 149.171 65.9718 149.176C65.6053 149.205 65.287 149.416 65.1727 149.668Z" fill="#636463"/>
<path d="M65.1727 149.668C65.1634 149.688 65.1852 149.625 65.1915 149.603L65.2159 149.518C65.4698 148.647 65.7229 147.776 65.9762 146.904L74.1318 146.92L65.1187 153.867L69.2375 149.164L66.1439 149.172C66.0862 149.172 66.0294 149.171 65.9718 149.176C65.6053 149.205 65.287 149.416 65.1727 149.668Z" stroke="#FFFCFC" stroke-width="0.395675" stroke-miterlimit="22.926"/>
<path fill-rule="evenodd" clip-rule="evenodd" d="M73.6876 151.667C73.6967 151.647 73.4412 153.148 72.99 154.7L64.4785 154.745L73.6711 147.689L69.5512 152.437L72.6454 152.428C72.7026 152.428 72.7597 152.43 72.8171 152.425C73.1838 152.395 73.5734 151.919 73.6876 151.667Z" fill="#D22F14"/>
<path d="M73.6876 151.667C73.6967 151.647 73.4412 153.148 72.99 154.7L64.4785 154.745L73.6711 147.689L69.5512 152.437L72.6454 152.428C72.7026 152.428 72.7597 152.43 72.8171 152.425C73.1838 152.395 73.5734 151.919 73.6876 151.667Z" stroke="#FFFCFC" stroke-width="0.395675" stroke-miterlimit="22.926"/>
<path fill-rule="evenodd" clip-rule="evenodd" d="M65.6127 156.909H64.1646L65.1655 155.62H64.5014L64.5499 155.264H65.9294L64.9304 156.55H65.661L65.6127 156.909ZM65.8862 156.909H66.8901L66.9396 156.54H66.3713L66.4089 156.263H66.945L66.9927 155.91H66.4566L66.495 155.625H67.0634L67.1121 155.264H66.1083L65.8862 156.909ZM67.1855 156.909L67.4077 155.264H67.8386L68.3433 156.11C68.353 156.127 68.3674 156.162 68.3882 156.214C68.4085 156.266 68.4296 156.328 68.4528 156.4C68.453 156.332 68.4548 156.271 68.4578 156.218C68.4607 156.165 68.4651 156.117 68.4711 156.076L68.5806 155.264H69.0094L68.7872 156.909H68.3582L67.8543 156.059C67.8438 156.042 67.8286 156.008 67.8083 155.956C67.7883 155.903 67.767 155.842 67.7445 155.772C67.7438 155.841 67.742 155.902 67.7394 155.955C67.7363 156.008 67.7317 156.055 67.7258 156.097L67.6164 156.909L67.1855 156.909ZM69.1497 156.909L69.3718 155.264H69.8231L69.6011 156.909H69.1497ZM70.1974 156.909L70.3669 155.653H69.9994L70.0522 155.264H71.2333L71.1805 155.653H70.8136L70.6436 156.909H70.1974ZM71.2292 156.909H71.6758L71.7661 156.239H72.3615L72.2711 156.909H72.7189L72.9409 155.264H72.4932L72.4069 155.903H71.8117L71.8979 155.264H71.451L71.2292 156.909Z" fill="#B2B3B2"/>
<defs>
<linearGradient id="paint0_linear_522_29368" x1="39.5863" y1="105.351" x2="39.5863" y2="132.141" gradientUnits="userSpaceOnUse">
<stop stop-color="#C9C9C9"/>
<stop offset="0.0252" stop-color="#C1C1C1"/>
<stop offset="0.2008" stop-color="#929091"/>
<stop offset="0.375" stop-color="#6A6868"/>
<stop offset="0.5446" stop-color="#4B4849"/>
<stop offset="0.708" stop-color="#353132"/>
<stop offset="0.8629" stop-color="#282425"/>
<stop offset="1" stop-color="#231F20"/>
</linearGradient>
<linearGradient id="paint1_linear_522_29368" x1="83.5453" y1="108.089" x2="48.2915" y2="6.63106" gradientUnits="userSpaceOnUse">
<stop stop-color="#C4551D"/>
<stop offset="1" stop-color="#C4543D"/>
</linearGradient>
<linearGradient id="paint2_linear_522_29368" x1="83.5453" y1="108.089" x2="48.2915" y2="6.63106" gradientUnits="userSpaceOnUse">
<stop stop-color="#F39D72"/>
<stop offset="1" stop-color="#F55C3D"/>
</linearGradient>
</defs>
</svg>
