<svg width="24" height="24" viewBox="0 0 24 24" fill="none" xmlns="http://www.w3.org/2000/svg">
<path d="M11 2.53501C10.3919 2.1839 9.702 1.99908 8.99977 1.99911C8.29755 1.99915 7.60771 2.18406 6.99961 2.53524C6.39151 2.88642 5.88657 3.3915 5.53556 3.9997C5.18455 4.6079 4.99984 5.29779 5 6.00001V7.77401C4.149 8.11601 3.451 8.64801 2.941 9.34901C2.292 10.242 2 11.335 2 12.5C2 14.061 2.795 15.436 4 16.242V17.5C3.99994 18.3149 4.22117 19.1146 4.64008 19.8136C5.05899 20.5126 5.65985 21.0847 6.37853 21.4689C7.09721 21.8531 7.90672 22.0349 8.72066 21.9949C9.5346 21.955 10.3224 21.6947 11 21.242V17.5C11 16.167 10.67 15.315 10.14 14.74C9.597 14.153 8.716 13.716 7.336 13.486L7.664 11.514C8.966 11.73 10.106 12.137 11 12.827V2.53501ZM13 2.53501V12.827C13.894 12.137 15.034 11.73 16.336 11.514L16.664 13.486C15.284 13.716 14.403 14.153 13.86 14.741C13.33 15.315 13 16.167 13 17.5V21.242C13.6776 21.6947 14.4654 21.955 15.2793 21.9949C16.0933 22.0349 16.9028 21.8531 17.6215 21.4689C18.3401 21.0847 18.941 20.5126 19.3599 19.8136C19.7788 19.1146 20.0001 18.3149 20 17.5V16.242C21.205 15.436 22 14.062 22 12.5C22 11.335 21.708 10.242 21.059 9.35001C20.549 8.64801 19.851 8.11601 19 7.77401V6.00001C19.0002 5.29779 18.8154 4.6079 18.4644 3.9997C18.1134 3.3915 17.6085 2.88642 17.0004 2.53524C16.3923 2.18406 15.7024 1.99915 15.0002 1.99911C14.298 1.99908 13.6081 2.1839 13 2.53501Z" fill="#AC2ACF"/>
</svg>
