<svg width="12" height="12" viewBox="0 0 12 12" fill="none" xmlns="http://www.w3.org/2000/svg">
<path d="M1.5025 1.5H10.5025C10.6351 1.5 10.7623 1.55268 10.8561 1.64645C10.9498 1.74021 11.0025 1.86739 11.0025 2V10C11.0025 10.1326 10.9498 10.2598 10.8561 10.3536C10.7623 10.4473 10.6351 10.5 10.5025 10.5H1.5025C1.36989 10.5 1.24272 10.4473 1.14895 10.3536C1.05518 10.2598 1.0025 10.1326 1.0025 10V2C1.0025 1.86739 1.05518 1.74021 1.14895 1.64645C1.24272 1.55268 1.36989 1.5 1.5025 1.5ZM10.0025 6H2.0025V9.5H10.0025V6ZM10.0025 4V2.5H2.0025V4H10.0025Z" fill="#80828D"/>
</svg>
