<svg width="12" height="12" viewBox="0 0 12 12" fill="none" xmlns="http://www.w3.org/2000/svg">
<path d="M6.00244 2.00153C9.03994 2.00153 11.5024 3.34453 11.5024 5.00153V7.00153C11.5024 8.65853 9.03994 10.0015 6.00244 10.0015C3.01894 10.0015 0.590441 8.70603 0.504941 7.09003L0.502441 7.00153V5.00153C0.502441 3.34453 2.96494 2.00153 6.00244 2.00153ZM6.00244 8.00153C4.14244 8.00153 2.49744 7.49753 1.50244 6.72653V7.00153C1.50244 7.94253 3.44394 9.00153 6.00244 9.00153C8.50744 9.00153 10.4214 7.98653 10.4999 7.06053L10.5024 7.00153L10.5029 6.72653C9.50794 7.49753 7.86294 8.00153 6.00244 8.00153ZM6.00244 3.00153C3.44394 3.00153 1.50244 4.06053 1.50244 5.00153C1.50244 5.94253 3.44394 7.00153 6.00244 7.00153C8.56094 7.00153 10.5024 5.94253 10.5024 5.00153C10.5024 4.06053 8.56094 3.00153 6.00244 3.00153Z" fill="#80828D"/>
</svg>
