<svg width="12" height="12" viewBox="0 0 12 12" fill="none" xmlns="http://www.w3.org/2000/svg">
<path d="M8.25 1.5C9.769 1.5 11 2.75 11 4.5C11 8 7.25 10 6 10.75C5.0115 10.157 2.4585 8.7815 1.4345 6.5005L0.5 6.5V5.5H1.105C1.03509 5.17126 0.999894 4.83609 1 4.5C1 2.75 2.25 1.5 3.75 1.5C4.68 1.5 5.5 2 6 2.5C6.5 2 7.32 1.5 8.25 1.5ZM8.25 2.5C7.712 2.5 7.13 2.785 6.707 3.207L6 3.914L5.293 3.207C4.87 2.785 4.288 2.5 3.75 2.5C2.78 2.5 2 3.3285 2 4.5C2 4.84267 2.0445 5.176 2.1335 5.5H3.217L4.25 3.778L5.75 6.278L6.217 5.5H8.5V6.5H6.783L5.75 8.222L4.25 5.722L3.783 6.5H2.554C2.949 7.187 3.5465 7.834 4.3225 8.4515C4.695 8.748 5.0925 9.0245 5.533 9.3015C5.6825 9.396 5.8305 9.4865 6 9.5875C6.1695 9.4865 6.3175 9.396 6.467 9.302C6.88557 9.04082 7.28951 8.7569 7.677 8.4515C9.1675 7.2665 10 5.9715 10 4.5C10 3.32 9.2315 2.5 8.25 2.5Z" fill="#80828D"/>
</svg>
