<svg width="12" height="12" viewBox="0 0 12 12" fill="none" xmlns="http://www.w3.org/2000/svg">
<path d="M3 2H2V1H10V2H9V3C9 3.8075 8.592 4.4575 8.078 4.9885C7.7265 5.3515 7.299 5.686 6.8655 6C7.299 6.314 7.7265 6.6485 8.078 7.0115C8.592 7.5425 9 8.1925 9 9V10H10V11H2V10H3V9C3 8.1925 3.408 7.5425 3.922 7.0115C4.2735 6.6485 4.701 6.314 5.1345 6C4.701 5.686 4.2735 5.3515 3.922 4.9885C3.408 4.4575 3 3.8075 3 3V2ZM4 2V3C4 3.4425 4.217 3.855 4.6405 4.293C5.004 4.6685 5.4775 5.02 6 5.389C6.5225 5.02 6.996 4.6685 7.3595 4.293C7.783 3.855 8 3.4425 8 3V2H4ZM6 6.611C5.4775 6.98 5.004 7.3315 4.6405 7.707C4.217 8.145 4 8.5575 4 9V10H8V9C8 8.5575 7.783 8.145 7.3595 7.707C6.996 7.3315 6.5225 6.98 6 6.611Z" fill="#80828D"/>
</svg>
