<svg width="12" height="12" viewBox="0 0 12 12" fill="none" xmlns="http://www.w3.org/2000/svg">
<path d="M0.344971 3.49851C1.94462 2.20285 3.94143 1.49717 5.99997 1.50001C8.14247 1.50001 10.11 2.24851 11.655 3.49851L11.027 4.27651C9.60514 3.12444 7.82996 2.4971 5.99997 2.50001C4.09497 2.50001 2.34697 3.16501 0.972971 4.27651L0.344971 3.49851ZM1.91547 5.44351C3.07085 4.50765 4.51312 3.99794 5.99997 4.00001C7.48676 3.9978 8.92902 4.50733 10.0845 5.44301L9.45597 6.22101C8.47847 5.42903 7.25804 4.99785 5.99997 5.00001C4.69097 5.00001 3.48847 5.45751 2.54397 6.22101L1.91547 5.44351ZM3.48647 7.38851C4.19745 6.81256 5.08498 6.49883 5.99997 6.50001C6.95197 6.50001 7.82647 6.83251 8.51347 7.38801L7.88497 8.16601C7.35167 7.7343 6.68611 7.49915 5.99997 7.50001C5.28597 7.50001 4.62997 7.74951 4.11497 8.16601L3.48647 7.38851ZM5.05747 9.33351C5.32426 9.11783 5.65691 9.00013 5.99997 9.00001C6.35697 9.00001 6.68497 9.12501 6.94247 9.33301L5.99997 10.5L5.05747 9.33351Z" fill="#80828D"/>
</svg>
