<svg width="16" height="16" viewBox="0 0 16 16" fill="none" xmlns="http://www.w3.org/2000/svg">
<path d="M4.17668 2.53799L4.94134 3.63066C4.01213 4.28117 3.31452 5.211 2.94984 6.28506C2.58516 7.35912 2.57241 8.52148 2.91345 9.60328C3.25448 10.6851 3.93154 11.63 4.84626 12.3007C5.76098 12.9715 6.86573 13.3331 8.00001 13.3331C9.1343 13.3331 10.239 12.9715 11.1538 12.3007C12.0685 11.63 12.7455 10.6851 13.0866 9.60328C13.4276 8.52148 13.4149 7.35912 13.0502 6.28506C12.6855 5.211 11.9879 4.28117 11.0587 3.63066L11.8233 2.53799C12.7019 3.15236 13.4192 3.96973 13.9142 4.92065C14.4092 5.87157 14.6673 6.92794 14.6667 7.99999C14.6667 11.682 11.682 14.6667 8.00001 14.6667C4.31801 14.6667 1.33334 11.682 1.33334 7.99999C1.33268 6.92794 1.59083 5.87157 2.08585 4.92065C2.58087 3.96973 3.29813 3.15236 4.17668 2.53799ZM7.33334 7.99999V1.33333H8.66668V7.99999H7.33334Z" fill="#80828D"/>
</svg>
