<svg width="24" height="24" viewBox="0 0 24 24" fill="none" xmlns="http://www.w3.org/2000/svg">
<path d="M19.249 6.87199C19.3676 6.75341 19.5141 6.66654 19.675 6.61939C19.8359 6.57224 20.0061 6.56632 20.17 6.60217C20.3338 6.63802 20.4859 6.71449 20.6125 6.82455C20.739 6.93461 20.8358 7.07472 20.894 7.23199C21.3591 8.48132 21.4578 9.83746 21.1786 11.141C20.8994 12.4445 20.2538 13.6412 19.3177 14.5904C18.3817 15.5395 17.1941 16.2017 15.8946 16.4991C14.5951 16.7965 13.2377 16.7166 11.982 16.269L7.96901 20.282C7.69041 20.5606 7.35967 20.7816 6.99566 20.9324C6.63165 21.0831 6.24151 21.1607 5.84751 21.1607C5.45351 21.1607 5.06337 21.0831 4.69937 20.9324C4.33536 20.7816 4.00461 20.5606 3.72601 20.282C3.44741 20.0034 3.22642 19.6726 3.07564 19.3086C2.92486 18.9446 2.84726 18.5545 2.84726 18.1605C2.84726 17.7665 2.92486 17.3764 3.07564 17.0123C3.22642 16.6483 3.44741 16.3176 3.72601 16.039L7.73901 12.026C7.29115 10.7713 7.21064 9.41481 7.50694 8.11593C7.80325 6.81705 8.46406 5.6297 9.41175 4.69334C10.3595 3.75698 11.5547 3.11052 12.857 2.82987C14.1594 2.54922 15.5148 2.64606 16.764 3.10899C16.9213 3.16719 17.0614 3.26401 17.1715 3.39054C17.2815 3.51706 17.358 3.66923 17.3938 3.83305C17.4297 3.99687 17.4238 4.16707 17.3766 4.328C17.3295 4.48893 17.2426 4.63542 17.124 4.75399L14.768 7.10999C14.4866 7.39126 14.3285 7.77278 14.3284 8.17064C14.3283 8.5685 14.4863 8.9501 14.7675 9.23149C15.0488 9.51289 15.4303 9.67103 15.8282 9.67112C16.226 9.67121 16.6076 9.51326 16.889 9.23199L19.249 6.87199Z" fill="#D43900"/>
</svg>
