<svg width="24" height="24" viewBox="0 0 24 24" fill="none" xmlns="http://www.w3.org/2000/svg">
<path d="M19.038 6.37793C19.1511 6.26512 19.2896 6.18104 19.4419 6.13276C19.5942 6.08447 19.7559 6.07338 19.9133 6.10041C20.0708 6.12743 20.2195 6.19179 20.3469 6.2881C20.4744 6.3844 20.577 6.50985 20.646 6.65393C21.2223 7.86145 21.4406 9.2088 21.275 10.5365C21.1094 11.8642 20.5668 13.1167 19.7116 14.1456C18.8563 15.1746 17.7242 15.9369 16.4491 16.3425C15.1741 16.748 13.8095 16.7798 12.517 16.4339L8.67299 20.2789C8.01658 20.9353 7.1263 21.3041 6.19799 21.3041C5.26969 21.3041 4.3794 20.9353 3.72299 20.2789C3.06658 19.6225 2.69781 18.7322 2.69781 17.8039C2.69781 16.8756 3.06658 15.9853 3.72299 15.3289L7.56799 11.4839C7.22216 10.1914 7.2539 8.82687 7.65944 7.55182C8.06499 6.27677 8.82736 5.14461 9.85632 4.28936C10.8853 3.4341 12.1377 2.89156 13.4654 2.72596C14.7931 2.56036 16.1405 2.77863 17.348 3.35493C17.4922 3.42401 17.6177 3.52666 17.714 3.65426C17.8104 3.78187 17.8747 3.93071 17.9016 4.08831C17.9286 4.24591 17.9173 4.40767 17.8688 4.56002C17.8204 4.71238 17.7361 4.85089 17.623 4.96393L15.037 7.55093C14.8548 7.73954 14.754 7.99214 14.7563 8.25434C14.7586 8.51653 14.8638 8.76735 15.0492 8.95275C15.2346 9.13816 15.4854 9.24333 15.7476 9.24561C16.0098 9.24789 16.2624 9.14709 16.451 8.96493L19.038 6.37793ZM17.865 10.3789C17.5873 10.6613 17.2564 10.8858 16.8915 11.0396C16.5266 11.1935 16.1348 11.2735 15.7388 11.2752C15.3428 11.2768 14.9503 11.2001 14.5841 11.0493C14.2179 10.8986 13.8852 10.6768 13.6052 10.3968C13.3251 10.1168 13.1032 9.78411 12.9524 9.41794C12.8015 9.05178 12.7247 8.65937 12.7262 8.26335C12.7278 7.86733 12.8078 7.47554 12.9615 7.11058C13.1152 6.74562 13.3397 6.41471 13.622 6.13693L15.037 4.72193C14.1787 4.59924 13.3033 4.70173 12.4966 5.01936C11.6898 5.337 10.9795 5.85886 10.4353 6.53378C9.89109 7.20869 9.53163 8.01347 9.3922 8.86919C9.25278 9.72491 9.33816 10.6022 9.63999 11.4149C9.70643 11.5942 9.72008 11.7888 9.67931 11.9756C9.63855 12.1624 9.54508 12.3336 9.40999 12.4689L5.13699 16.7429C4.8556 17.0242 4.69746 17.4057 4.69737 17.8036C4.69727 18.2014 4.85523 18.583 5.13649 18.8644C5.41776 19.1458 5.79928 19.304 6.19714 19.3041C6.595 19.3042 6.9766 19.1462 7.25799 18.8649L11.532 14.5909C11.6674 14.4557 11.8388 14.3621 12.0258 14.3213C12.2128 14.2805 12.4076 14.2943 12.587 14.3609C13.3998 14.6628 14.277 14.7482 15.1327 14.6087C15.9885 14.4693 16.7932 14.1098 17.4682 13.5656C18.1431 13.0214 18.6649 12.3111 18.9826 11.5044C19.3002 10.6976 19.4027 9.82221 19.28 8.96393L17.865 10.3789Z" fill="#80828D"/>
</svg>
