<svg width="16" height="16" viewBox="0 0 16 16" fill="none" xmlns="http://www.w3.org/2000/svg">
<path d="M13.6681 3.49934C13.7669 3.40051 13.889 3.32813 14.0231 3.28883C14.1572 3.24954 14.2991 3.24461 14.4356 3.27448C14.5721 3.30436 14.6989 3.36809 14.8043 3.4598C14.9098 3.55152 14.9905 3.66828 15.039 3.79934C15.4265 4.84044 15.5088 5.97056 15.2761 7.05682C15.0434 8.14308 14.5054 9.14033 13.7254 9.93131C12.9453 10.7223 11.9557 11.2741 10.8728 11.5219C9.78985 11.7697 8.6587 11.7032 7.6123 11.3302L4.26813 14.6743C4.03596 14.9065 3.76034 15.0907 3.457 15.2163C3.15366 15.342 2.82854 15.4066 2.50021 15.4066C2.17188 15.4066 1.84676 15.342 1.54342 15.2163C1.24008 15.0907 0.964461 14.9065 0.732295 14.6743C0.500129 14.4422 0.315965 14.1665 0.190317 13.8632C0.0646698 13.5599 -3.45954e-09 13.2347 0 12.9064C3.45955e-09 12.5781 0.0646698 12.253 0.190317 11.9496C0.315965 11.6463 0.500129 11.3707 0.732295 11.1385L4.07646 7.79433C3.70324 6.74874 3.63615 5.61835 3.88307 4.53595C4.12999 3.45355 4.68067 2.46409 5.47041 1.68379C6.26016 0.903495 7.25618 0.364771 8.34147 0.130899C9.42677 -0.102972 10.5563 -0.0222785 11.5973 0.363502C11.7284 0.412002 11.8451 0.492683 11.9368 0.598121C12.0285 0.703559 12.0923 0.830369 12.1221 0.966884C12.152 1.1034 12.1471 1.24524 12.1078 1.37934C12.0685 1.51345 11.9961 1.63553 11.8973 1.73434L9.93396 3.69767C9.69947 3.93205 9.56768 4.24999 9.56761 4.58154C9.56753 4.91309 9.69916 5.23109 9.93355 5.46558C10.1679 5.70008 10.4859 5.83186 10.8174 5.83194C11.149 5.83202 11.467 5.70039 11.7015 5.466L13.6681 3.49934Z" fill="#80828D"/>
</svg>
