<svg width="24" height="24" viewBox="0 0 24 24" fill="none" xmlns="http://www.w3.org/2000/svg">
<path d="M19.2497 6.87257C19.3682 6.75399 19.5147 6.66712 19.6756 6.61997C19.8366 6.57282 20.0068 6.5669 20.1706 6.60275C20.3344 6.6386 20.4866 6.71507 20.6131 6.82513C20.7396 6.93519 20.8365 7.0753 20.8947 7.23257C21.3597 8.4819 21.4585 9.83804 21.1792 11.1416C20.9 12.4451 20.2544 13.6418 19.3184 14.5909C18.3823 15.5401 17.1947 16.2023 15.8952 16.4997C14.5957 16.797 13.2383 16.7172 11.9827 16.2696L7.96965 20.2826C7.69105 20.5612 7.36031 20.7822 6.9963 20.9329C6.63229 21.0837 6.24215 21.1613 5.84815 21.1613C5.45416 21.1613 5.06401 21.0837 4.70001 20.9329C4.336 20.7822 4.00525 20.5612 3.72665 20.2826C3.44806 20.004 3.22706 19.6732 3.07628 19.3092C2.9255 18.9452 2.8479 18.5551 2.8479 18.1611C2.8479 17.7671 2.9255 17.3769 3.07628 17.0129C3.22706 16.6489 3.44806 16.3182 3.72665 16.0396L7.73965 12.0266C7.29179 10.7719 7.21128 9.41539 7.50758 8.11651C7.80389 6.81763 8.4647 5.63028 9.4124 4.69392C10.3601 3.75756 11.5553 3.1111 12.8577 2.83045C14.16 2.5498 15.5154 2.64664 16.7647 3.10957C16.9219 3.16777 17.062 3.26459 17.1721 3.39112C17.2822 3.51764 17.3586 3.66981 17.3945 3.83363C17.4303 3.99745 17.4244 4.16765 17.3773 4.32858C17.3301 4.48951 17.2432 4.636 17.1247 4.75457L14.7687 7.11057C14.4873 7.39183 14.3291 7.77336 14.329 8.17122C14.3289 8.56908 14.4869 8.95068 14.7682 9.23207C15.0494 9.51347 15.4309 9.67161 15.8288 9.6717C16.2267 9.67179 16.6083 9.51383 16.8897 9.23257L19.2497 6.87257Z" fill="#27AE60"/>
</svg>
